{"title":"Hot Anal With Cum Swallow","uid":7357179,"size":179556352,"categoryP":"porn","categoryS":"movie_clips","magnet":"?xt=urn:btih:a1b1704110135fe6bf2ff080aa44b535f4480fdb&amp;dn=Hot+Anal+With+Cum+Swallow&amp;tr=udp%3A%2F%2Ftracker.openbittorrent.com%3A80&amp;tr=udp%3A%2F%2Fopen.demonii.com%3A1337&amp;tr=udp%3A%2F%2Ftracker.coppersurfer.tk%3A6969&amp;tr=udp%3A%2F%2Fexodus.desync.com%3A6969","seeders":4,"leechers":1,"uploader":"soulless123","files":1,"time":1339807795,"description":"Screens &lt;a href=&quot;\nhttp://bayimg.com/PAPKiAadC&quot; rel=&quot;nofollow&quot; target=&quot;_NEW&quot;&gt;\nhttp://bayimg.com/PAPKiAadC&lt;/a&gt;\n &lt;a href=&quot;\nhttp://bayimg.com/PAPKHAaDC&quot; rel=&quot;nofollow&quot; target=&quot;_NEW&quot;&gt;\nhttp://bayimg.com/PAPKHAaDC&lt;/a&gt;\n\n\n\n\n\nSeeding Time 24/7\n\nDon't Forget To Say Thanks If You Like My Post\n\n\n\n-=Media Info=-\n\nFormat : AVI\nFormat/Info : Audio Video Interleave\nFile size : 171 MiB\nDuration : 11mn 37s\nOverall bit rate : 2 059 Kbps\nWriting library : VirtualDub build 18160/release\n\nVideo\nID : 0\nFormat : MPEG-4 Visual\nFormat settings, BVOP : 1\nFormat settings, QPel : No\nFormat settings, GMC : No warppoints\nFormat settings, Matrix : Default (H.263)\nMuxing mode : Packed bitstream\nCodec ID : DX50\nCodec ID/Hint : DivX 5\nDuration : 11mn 37s\nBit rate : 2 001 Kbps\nWidth : 640 pixels\nHeight : 480 pixels\nDisplay aspect ratio : 4:3\nFrame rate : 25.000 fps\nColor space : YUV\nChroma subsampling : 40\nBit depth : 8 bits\nScan type : Progressive\nCompression mode : Lossy\nBits/(Pixel*Frame) : 0.261\nStream size : 166 MiB (97%)\nWriting library : DivX 5.2.1 (WaffleDay) (UTC 2004-09-08)\n\nAudio\nID : 1\nFormat : MPEG Audio\nFormat version : Version 2\nFormat profile : Layer 3\nMode : Joint stereo\nMode extension : Intensity Stereo + MS Stereo\nCodec ID : 55\nCodec ID/Hint : MP3\nDuration : 11mn 37s\nBit rate mode : Constant\nBit rate : 48.0 Kbps\nChannel(s) : 2 channels\nSampling rate : 24.0 KHz\nCompression mode : Lossy\nStream size : 3.99 MiB (2%)\nAlignment : Split accross interleaves\nInterleave, duration : 40 ms (1.00 video frame)\nInterleave, preload duration : 500 ms","torrent":{"xt":"urn:btih:a1b1704110135fe6bf2ff080aa44b535f4480fdb","amp;dn":"Hot+Anal+With+Cum+Swallow","amp;tr":["udp%3A%2F%2Ftracker.openbittorrent.com%3A80","udp%3A%2F%2Fopen.demonii.com%3A1337","udp%3A%2F%2Ftracker.coppersurfer.tk%3A6969","udp%3A%2F%2Fexodus.desync.com%3A6969"],"infoHash":"a1b1704110135fe6bf2ff080aa44b535f4480fdb","infoHashBuffer":{"type":"Buffer","data":[161,177,112,65,16,19,95,230,191,47,240,128,170,68,181,53,244,72,15,219]},"announce":[],"urlList":[]}}